# xmcd CD database file
#
# Track frame offsets:
#	150
#	900
#	1650
#	2400
#	3150
#	3900
#	4650
#	5400
#	6150
#	6900
#	7650
#	185135
#
# Disc length: 4440 seconds
#
# Revision: 0
# Processed by: cddbd v1.5.1PL0 Copyright (c) Steve Scherf et al.
# Submitted via: CDex 1.51
#
DISCID=5811560c
DTITLE=つじあやの - 恋恋風歌
DYEAR=2003
DGENRE=J-POP
TTITLE0=桜の木下で(SAKURA)
TTITLE1=ありきたりなロマンス(ROMANCE)
TTITLE2=明日によろしく(TOMORROW)
TTITLE3=月が泣いている
TTITLE4=雨音
TTITLE5=帰り道
TTITLE6=ぎゅっと抱きしめて
TTITLE7=春の陽ざし
TTITLE8=風になる
TTITLE9=星に願いを
TTITLE10=さよならを数えて
TTITLE11=ボーナストラック
EXTD=YEAR: 2003
EXTT0=
EXTT1=
EXTT2=
EXTT3=
EXTT4=
EXTT5=
EXTT6=
EXTT7=
EXTT8=
EXTT9=
EXTT10=
EXTT11=
PLAYORDER=
